<svg width="28" height="28" viewBox="0 0 28 28" fill="none" xmlns="http://www.w3.org/2000/svg">
<path fill-rule="evenodd" clip-rule="evenodd" d="M0.455607 0.455607C1.06308 -0.151869 2.04802 -0.151869 2.6555 0.455607L27.5443 25.3446C28.1518 25.9521 28.1518 26.9368 27.5443 27.5443C26.9368 28.1518 25.9521 28.1518 25.3446 27.5443L0.455607 2.6555C-0.151869 2.04802 -0.151869 1.06308 0.455607 0.455607Z" fill="white"/>
<path fill-rule="evenodd" clip-rule="evenodd" d="M26.4445 4.66675C27.3036 4.66675 28 5.3632 28 6.2223V26.4445C28 27.3036 27.3036 28.0001 26.4445 28.0001H6.22224C5.36314 28.0001 4.66669 27.3036 4.66669 26.4445C4.66669 25.5854 5.36314 24.889 6.22224 24.889H24.8889V6.2223C24.8889 5.3632 25.5854 4.66675 26.4445 4.66675Z" fill="white"/>
</svg>
