<svg width="52" height="52" viewBox="0 0 52 52" fill="none" xmlns="http://www.w3.org/2000/svg">
<g filter="url(#filter0_i_175_506)">
<circle cx="26" cy="26" r="23" fill="#4F74A7"/>
</g>
<circle cx="26" cy="26" r="24.5" stroke="#191919" stroke-width="3"/>
<path fill-rule="evenodd" clip-rule="evenodd" d="M36.2539 32.4725C35.9878 32.7582 35.2788 32.8215 35.2788 32.8215H31.5002C31.5002 32.8215 30.9719 32.9392 30.0374 32.0072C29.3955 31.3668 28.7357 30.4221 28.2091 30.0294C27.8951 29.7953 27.5996 29.9131 27.5996 29.9131C27.5996 29.9131 27.0482 29.9383 26.9901 30.4948C26.888 31.4722 26.7464 32.0072 26.7464 32.0072C26.7464 32.0072 26.6791 32.4204 26.5026 32.5889C26.314 32.7689 26.015 32.8215 26.015 32.8215C26.015 32.8215 20.8 33.9435 16.7512 27.7027C13.8294 23.1988 13.4602 21.8859 13.4602 21.8859C13.4602 21.8859 13.2123 21.5677 13.4602 21.1879C13.7218 20.7869 14.0696 20.8389 14.0696 20.8389H17.4826C17.4826 20.8389 17.8599 20.8777 18.0921 21.0715C18.3465 21.284 18.4578 21.6532 18.4578 21.6532C18.4578 21.6532 19.2059 23.3799 20.0424 24.678C21.1982 26.4717 21.7489 26.3067 21.7489 26.3067C21.7489 26.3067 22.747 26.0417 22.1145 22.0022C22.027 21.4434 20.8956 21.3042 20.8956 21.3042C20.8956 21.3042 20.8851 20.8219 21.1394 20.6062C21.431 20.3587 21.7489 20.3735 21.7489 20.3735C21.7489 20.3735 22.255 20.2891 24.0648 20.2572C24.9797 20.2411 25.6494 20.2572 25.6494 20.2572C25.6494 20.2572 26.0947 20.243 26.6245 20.6062C26.8809 20.7819 26.8683 21.1879 26.8683 21.1879C26.8683 21.1879 26.7608 24.1032 26.8683 25.6087C26.9146 26.2563 27.234 26.3068 27.234 26.3068C27.234 26.3068 27.5771 26.5603 28.9405 24.678C29.8032 23.4869 30.5251 21.7696 30.5251 21.7696C30.5251 21.7696 30.7038 21.2798 30.8907 21.0716C31.0692 20.8729 31.3783 20.8389 31.3783 20.8389H35.7664C35.7664 20.8389 36.037 20.8294 36.1321 21.0716C36.2194 21.2939 36.1321 21.7696 36.1321 21.7696C36.1321 21.7696 36.0841 22.2964 35.6445 22.933C34.6065 24.4361 32.5972 26.8884 32.5972 26.8884C32.5972 26.8884 32.4464 27.2214 32.4753 27.4701C32.5072 27.7438 32.7191 27.9355 32.7191 27.9355C32.7191 27.9355 34.2336 29.2433 35.2788 30.3786C35.8436 30.9919 36.254 31.7746 36.254 31.7746C36.254 31.7746 36.4701 32.2404 36.2539 32.4725Z" fill="white"/>
<defs>
<filter id="filter0_i_175_506" x="0" y="0" width="52" height="52" filterUnits="userSpaceOnUse" color-interpolation-filters="sRGB">
<feFlood flood-opacity="0" result="BackgroundImageFix"/>
<feBlend mode="normal" in="SourceGraphic" in2="BackgroundImageFix" result="shape"/>
<feColorMatrix in="SourceAlpha" type="matrix" values="0 0 0 0 0 0 0 0 0 0 0 0 0 0 0 0 0 0 127 0" result="hardAlpha"/>
<feOffset/>
<feGaussianBlur stdDeviation="10"/>
<feComposite in2="hardAlpha" operator="arithmetic" k2="-1" k3="1"/>
<feColorMatrix type="matrix" values="0 0 0 0 1 0 0 0 0 1 0 0 0 0 1 0 0 0 0.4 0"/>
<feBlend mode="normal" in2="shape" result="effect1_innerShadow_175_506"/>
</filter>
</defs>
</svg>
